<?xml version="1.0" encoding="utf-8"?>
<!-- Generator: Adobe Illustrator 24.1.1, SVG Export Plug-In . SVG Version: 6.00 Build 0)  -->
<svg version="1.1" id="Layer_1" xmlns="http://www.w3.org/2000/svg" xmlns:xlink="http://www.w3.org/1999/xlink" x="0px" y="0px"
	 viewBox="0 0 512 512" style="enable-background:new 0 0 512 512;" xml:space="preserve" width="18" height="18" fill="#707070">
<g>
	<path d="M21.3,0C9.5,0,0,9.5,0,21.3V256c0,141.4,114.6,256,256,256s256-114.6,256-256S397.4,0,256,0H21.3z M259.5,76.4
		c98.2,0.9,177,81.3,176.2,179.4c-1,98.2-81.3,176.9-179.4,176c-98.1-0.9-177-81.3-176.1-179.3C81.1,154.4,161.4,75.5,259.5,76.4
		L259.5,76.4z M258.9,124.8c-71.9-0.6-130.7,57.2-131.3,129c-0.7,71.9,57.1,130.8,129.1,131.5c34.5,0.3,67.7-13.2,92.3-37.3
		c24.7-24.2,38.7-57.2,38.9-91.7c0.7-71.9-57-130.8-128.8-131.5L258.9,124.8z M258.4,189.1c36.4,0.4,65.7,30.3,65.4,66.7
		c-0.3,36.4-30.2,65.7-66.6,65.3C169.3,320.2,170.5,188.3,258.4,189.1L258.4,189.1z"/>
</g>
</svg>
